:SAMPLES-PER-SECOND 30
:FULLY-SPECIFIED
:DEGREES
485
root  4.87738 32.8056 38.989 72.3324 11.37 87.6368
Spine  -2.2806 2.78422 -9.46793
Spine1  -1.61735 9.88556 1.1645
Neck  3.97569e-016 0 -2.38542e-015
Head  26.5682 -9.4676 18.3957
R_Clavicle  0.339167 -16.3702 0.606178
R_UpperArm  1.75689 1.9045 15.7684
R_Forearm  19.8501 -16.6868 14.3931
R_Hand  -0.493919 8.10682 -15.0382
L_Clavicle  -0.364773 14.63 -3.89919
L_UpperArm  -4.18249 19.832 27.6878
L_Forearm  14.9018 39.7155 38.7804
L_Hand  0.487109 2.88545 6.68533
L_Thigh  -11.407 4.58529 -13.4161
L_Calf  -5.69785 0.459875 -3.78249
L_Foot  1.95436 8.52871 -0.491047
L_Toe0  0.0984363 0.0334789 -5.9359
R_Thigh  7.59426 4.20506 -10.1014
R_Calf  -1.07062 9.93808 32.8999
R_Foot  0.0556663 -5.12789 -9.63976
R_Toe0  -2.3745 -0.251585 -16.8068
486
root  4.70949 32.7954 38.0105 76.631 10.7285 87.2437
Spine  -2.78616 3.74342 -10.8189
Spine1  -2.25098 8.23933 -0.567072
Neck  3.97569e-016 0 -2.38542e-015
Head  22.4177 -8.80996 21.026
R_Clavicle  0.322652 -16.0023 0.408241
R_UpperArm  2.36226 -1.33493 18.783
R_Forearm  21.6956 -18.9517 16.552
R_Hand  -0.470885 7.80347 -14.7354
L_Clavicle  -0.26829 13.0954 -3.8209
L_UpperArm  -5.13949 19.0004 26.7745
L_Forearm  12.5104 38.7827 38.6324
L_Hand  0.407657 2.36368 5.96416
L_Thigh  -10.4923 5.12767 -17.2788
L_Calf  -6.24704 0.180489 -1.75827
L_Foot  1.89972 8.62393 -0.786321
L_Toe0  -3.00175 0.185445 -4.05736
R_Thigh  10.754 4.64016 -9.50956
R_Calf  0.296727 11.1258 35.4658
R_Foot  0.407414 -4.87619 -11.6086
R_Toe0  -2.05123 -0.264221 -17.0919
487
root  4.51768 32.5636 36.9746 80.8546 10.0683 86.0372
Spine  -3.26816 5.35413 -12.1473
Spine1  -2.76329 6.70283 -1.40499
Neck  3.97569e-016 0 -2.38542e-015
Head  19.1171 -8.63566 21.9324
R_Clavicle  0.317097 -15.5047 0.446871
R_UpperArm  2.51229 -3.932 21.0692
R_Forearm  23.0294 -20.9755 18.5794
R_Hand  -0.402654 7.71893 -14.1612
L_Clavicle  -0.230014 12.3668 -3.57615
L_UpperArm  -3.88882 17.3723 25.6891
L_Forearm  7.06004 35.7396 37.6727
L_Hand  0.275242 1.81499 4.32665
L_Thigh  -9.47017 7.26378 -20.8041
L_Calf  -5.78576 -0.21637 1.11808
L_Foot  1.44589 6.40761 -0.479388
L_Toe0  -5.85538 0.644625 0.502818
R_Thigh  13.3817 5.60177 -7.97961
R_Calf  2.8558 12.5026 36.2308
R_Foot  0.561933 -4.88367 -12.6256
R_Toe0  -1.76345 -0.273805 -17.3456
488
root  4.31273 32.2653 35.8837 84.9596 9.96172 84.4593
Spine  -3.4747 6.57611 -12.5719
Spine1  -3.09884 6.24271 -1.73422
Neck  3.97569e-016 0 -2.38542e-015
Head  16.5442 -9.36154 21.1457
R_Clavicle  0.345649 -15.8642 0.833472
R_UpperArm  1.93103 -4.65663 23.375
R_Forearm  24.0633 -23.0263 20.1093
R_Hand  -0.371207 7.88815 -13.9965
L_Clavicle  -0.333562 13.7009 -2.62341
L_UpperArm  0.0260249 13.2718 23.6516
L_Forearm  0.0544001 31.8703 36.5208
L_Hand  0.148996 1.15316 2.58879
L_Thigh  -8.72717 10.3226 -24.4243
L_Calf  -4.0966 -0.904348 6.15279
L_Foot  0.876024 1.10487 2.96529
L_Toe0  -2.48022 0.454009 6.50814
R_Thigh  15.9962 6.77893 -6.45593
R_Calf  5.43629 13.6545 36.8175
R_Foot  0.488237 -6.70047 -14.0403
R_Toe0  -1.78192 -0.27407 -17.3293
489
root  4.14979 32.0005 34.6947 89.643 10.732 83.73
Spine  -3.41088 5.49397 -11.5593
Spine1  -3.22834 7.87077 -1.50094
Neck  3.97569e-016 0 -2.38542e-015
Head  14.0443 -10.1751 18.7715
R_Clavicle  0.386809 -17.2046 1.37866
R_UpperArm  4.10877 -3.30133 25.9883
R_Forearm  22.8214 -26.5496 20.2815
R_Hand  -0.507603 8.12004 -15.1486
L_Clavicle  -0.468601 16.4165 -0.999648
L_UpperArm  3.94711 7.45779 19.3388
L_Forearm  -4.95583 28.9589 35.6893
L_Hand  0.0321648 -0.0323655 0.689112
L_Thigh  -7.65098 12.5978 -27.2372
L_Calf  -2.31528 -1.80114 12.8451
L_Foot  0.980586 -3.14157 9.81013
L_Toe0  2.07809 -0.460396 5.50211
R_Thigh  17.9212 7.03122 -5.84949
R_Calf  8.62466 14.7828 38.6738
R_Foot  0.574555 -9.56406 -16.855
R_Toe0  -1.85244 -0.272227 -17.2671
490
root  4.10393 31.8006 33.3006 95.283 11.7259 85.3528
Spine  -3.36339 0.815 -9.52085
Spine1  -2.97883 11.2056 -0.287818
Neck  3.97569e-016 0 -2.38542e-015
Head  11.2369 -10.0297 15.367
R_Clavicle  0.404185 -18.4704 1.62757
R_UpperArm  12.4245 -1.48156 28.0258
R_Forearm  16.7031 -32.6747 19.9576
R_Hand  -0.804423 8.53364 -17.5272
L_Clavicle  -0.518328 18.2136 -0.108032
L_UpperArm  4.67652 2.87866 13.1661
L_Forearm  -6.26608 27.2378 35.056
L_Hand  -0.0420391 -1.38563 -1.27778
L_Thigh  -5.25684 12.0994 -27.5001
L_Calf  -1.31295 -2.52301 18.3811
L_Foot  2.34267 -2.76115 16.3272
L_Toe0  3.70976 -0.339501 -1.38536
R_Thigh  19.4517 4.49096 -5.18652
R_Calf  12.328 15.8273 40.472
R_Foot  0.898363 -11.7629 -19.9176
R_Toe0  -2.03313 -0.26688 -17.1078
491
root  4.1714 31.6865 31.7004 100.834 11.8955 89.3643
Spine  -3.40542 -5.71394 -7.13862
Spine1  -2.1913 13.6557 1.74409
Neck  3.97569e-016 0 -2.38542e-015
Head  8.22878 -8.76381 12.1609
R_Clavicle  0.398493 -18.7208 1.40655
R_UpperArm  25.9435 -1.515 28.5833
R_Forearm  5.78517 -40.1017 21.6302
R_Hand  -1.06291 9.35607 -19.5224
L_Clavicle  -0.509396 17.5414 -0.735414
L_UpperArm  1.19468 0.804465 6.89811
L_Forearm  -4.98686 25.9433 34.0718
L_Hand  -0.0672957 -1.8463 -2.24278
L_Thigh  -2.58395 8.37586 -25.0383
L_Calf  -1.14629 -2.74747 20.1552
L_Foot  4.42968 0.972613 18.9817
L_Toe0  1.19239 0.0442272 -5.75238
R_Thigh  21.2737 -1.26536 -3.83069
R_Calf  13.0826 16.4664 41.165
R_Foot  1.62704 -8.70447 -21.9944
R_Toe0  -1.7687 -0.273532 -17.341
492
root  4.25339 31.6141 30.047 104.579 11.4025 93.4458
Spine  -3.17356 -9.56586 -4.55849
Spine1  -1.16729 12.2807 3.55367
Neck  3.97569e-016 0 -2.38542e-015
Head  5.0719 -6.99505 10.2709
R_Clavicle  0.384546 -18.3472 1.09347
R_UpperArm  35.7548 -4.14844 27.9358
R_Forearm  -2.51814 -44.3632 26.2683
R_Hand  -1.03962 10.1592 -19.4319
L_Clavicle  -0.429076 15.4873 -1.82972
L_UpperArm  -3.07145 -0.611453 1.47427
L_Forearm  -3.61049 24.8028 32.2684
L_Hand  -0.06823 -0.980862 -1.72626
L_Thigh  -1.58292 3.84555 -21.3655
L_Calf  -0.620958 -2.49567 18.2521
L_Foot  5.64499 4.13985 18.4763
L_Toe0  0.429665 0.0362581 -6.20293
R_Thigh  24.4798 -6.98986 -1.6925
R_Calf  6.59216 14.9743 39.8962
R_Foot  2.11942 -2.59884 -21.4689
R_Toe0  -1.78853 -0.272302 -17.3235
493
root  4.25234 31.5095 28.519 106.152 11.3976 95.4171
Spine  -2.361 -7.73547 -1.6609
Spine1  -0.501503 6.33515 4.46314
Neck  3.97569e-016 0 -2.38542e-015
Head  1.63922 -5.26278 9.62561
R_Clavicle  0.379852 -18.4364 0.935709
R_UpperArm  39.4023 -8.04419 27.1362
R_Forearm  -4.6557 -45.3254 29.9831
R_Hand  -0.720138 10.2903 -17.3165
L_Clavicle  -0.362102 14.1596 -2.1939
L_UpperArm  -2.33912 -3.42615 -3.41258
L_Forearm  -3.98459 23.5736 30.2529
L_Hand  -0.0401822 0.41864 -0.742931
L_Thigh  -1.87344 1.3513 -17.9437
L_Calf  0.742807 -2.10255 15.262
L_Foot  5.90508 5.3166 17.6528
L_Toe0  0.505156 0.034446 -6.1361
R_Thigh  26.0664 -9.26242 0.260122
R_Calf  -3.12184 11.1232 36.7891
R_Foot  2.66347 4.03612 -20.1486
R_Toe0  -1.78853 -0.271771 -17.3235
494
root  4.15111 31.3068 27.1836 106.848 12.0162 95.5408
Spine  -1.24288 -2.27278 1.10184
Spine1  -0.416035 -1.67263 5.46167
Neck  3.97569e-016 0 -2.38542e-015
Head  -1.78114 -3.81994 8.9729
R_Clavicle  0.373711 -18.8054 0.610825
R_UpperArm  40.8117 -11.6458 26.3609
R_Forearm  -6.10443 -45.8604 31.4905
R_Hand  -0.344209 9.70533 -14.5794
L_Clavicle  -0.360852 13.9765 -1.80328
L_UpperArm  2.39541 -7.23442 -8.07626
L_Forearm  -4.40989 22.1739 28.0706
L_Hand  -0.0289393 1.30159 -0.418915
L_Thigh  -1.75987 0.682345 -14.571
L_Calf  1.50821 -1.63372 11.8236
L_Foot  6.21718 6.16429 17.5463
L_Toe0  0.505156 0.034446 -6.1361
R_Thigh  19.3793 -8.48082 2.58467
R_Calf  -3.90203 8.62632 28.1552
R_Foot  2.40753 3.71865 -17.4191
R_Toe0  -1.78853 -0.271599 -17.3236
